<svg width="21" height="20" viewBox="0 0 21 20" fill="none" xmlns="http://www.w3.org/2000/svg">
<g clip-path="url(#clip0_312_2654)">
<path d="M20.334 10C20.334 4.47715 15.8568 0 10.334 0C4.81113 0 0.333984 4.47715 0.333984 10C0.333984 14.9912 3.99082 19.1283 8.77148 19.8785V12.8906H6.23242V10H8.77148V7.79688C8.77148 5.29063 10.2645 3.90625 12.5486 3.90625C13.6424 3.90625 14.7871 4.10156 14.7871 4.10156V6.5625H13.5262C12.284 6.5625 11.8965 7.3334 11.8965 8.125V10H14.6699L14.2266 12.8906H11.8965V19.8785C16.6771 19.1283 20.334 14.9912 20.334 10Z" fill="white"/>
</g>
<defs>
<clipPath id="clip0_312_2654">
<rect width="20" height="20" fill="white" transform="translate(0.333984)"/>
</clipPath>
</defs>
</svg>
