<svg width="21" height="20" viewBox="0 0 21 20" fill="none" xmlns="http://www.w3.org/2000/svg">
<g clip-path="url(#clip0_312_2660)">
<path d="M18.8535 0H1.81055C0.994141 0 0.333984 0.644531 0.333984 1.44141V18.5547C0.333984 19.3516 0.994141 20 1.81055 20H18.8535C19.6699 20 20.334 19.3516 20.334 18.5586V1.44141C20.334 0.644531 19.6699 0 18.8535 0ZM6.26758 17.043H3.29883V7.49609H6.26758V17.043ZM4.7832 6.19531C3.83008 6.19531 3.06055 5.42578 3.06055 4.47656C3.06055 3.52734 3.83008 2.75781 4.7832 2.75781C5.73242 2.75781 6.50195 3.52734 6.50195 4.47656C6.50195 5.42188 5.73242 6.19531 4.7832 6.19531ZM17.377 17.043H14.4121V12.4023C14.4121 11.2969 14.3926 9.87109 12.8691 9.87109C11.3262 9.87109 11.0918 11.0781 11.0918 12.3242V17.043H8.13086V7.49609H10.9746V8.80078H11.0137C11.4082 8.05078 12.377 7.25781 13.8184 7.25781C16.8223 7.25781 17.377 9.23438 17.377 11.8047V17.043Z" fill="white"/>
</g>
<defs>
<clipPath id="clip0_312_2660">
<rect width="20" height="20" fill="white" transform="translate(0.333984)"/>
</clipPath>
</defs>
</svg>
